<svg width="120" height="16" viewBox="0 0 120 16" fill="none" xmlns="http://www.w3.org/2000/svg">
<path d="M0.314125 14.8682C0.216125 14.8682 0.139125 14.8402 0.083125 14.7842C0.027125 14.7282 -0.000874989 14.6512 -0.000874989 14.5532V0.483163C-0.000874989 0.385163 0.027125 0.308163 0.083125 0.252163C0.139125 0.196163 0.216125 0.168163 0.314125 0.168163H3.63213C3.73013 0.168163 3.80713 0.196163 3.86313 0.252163C3.91913 0.308163 3.94713 0.385163 3.94713 0.483163V11.3612C3.94713 11.4452 3.98913 11.4872 4.07313 11.4872H8.16813C8.26613 11.4872 8.34313 11.5152 8.39913 11.5712C8.45513 11.6272 8.48313 11.7042 8.48313 11.8022V14.5532C8.48313 14.6512 8.45513 14.7282 8.39913 14.7842C8.34313 14.8402 8.26613 14.8682 8.16813 14.8682H0.314125ZM15.3047 15.0362C13.8907 15.0362 12.7567 14.6302 11.9027 13.8182C11.0627 13.0062 10.6427 11.9142 10.6427 10.5422V4.49416C10.6427 3.12216 11.0627 2.03016 11.9027 1.21816C12.7567 0.406164 13.8907 0.000163972 15.3047 0.000163972C16.7187 0.000163972 17.8457 0.406164 18.6857 1.21816C19.5397 2.03016 19.9667 3.12216 19.9667 4.49416V10.5422C19.9667 11.9142 19.5397 13.0062 18.6857 13.8182C17.8457 14.6302 16.7187 15.0362 15.3047 15.0362ZM15.3047 11.6552C15.5287 11.6552 15.7037 11.5712 15.8297 11.4032C15.9557 11.2352 16.0187 11.0042 16.0187 10.7102V4.32616C16.0187 4.03216 15.9557 3.80116 15.8297 3.63316C15.7037 3.46516 15.5287 3.38116 15.3047 3.38116C15.0807 3.38116 14.9057 3.46516 14.7797 3.63316C14.6537 3.80116 14.5907 4.03216 14.5907 4.32616V10.7102C14.5907 11.0042 14.6537 11.2352 14.7797 11.4032C14.9057 11.5712 15.0807 11.6552 15.3047 11.6552ZM26.9135 15.0362C25.5275 15.0362 24.4145 14.6302 23.5745 13.8182C22.7345 13.0062 22.3145 11.9212 22.3145 10.5632V4.43116C22.3145 3.07316 22.7275 1.99516 23.5535 1.19716C24.3935 0.399164 25.5135 0.000163972 26.9135 0.000163972C28.2995 0.000163972 29.4125 0.399164 30.2525 1.19716C31.0925 1.99516 31.5125 3.07316 31.5125 4.43116V4.53616C31.5125 4.63416 31.4845 4.71816 31.4285 4.78816C31.3725 4.84416 31.2955 4.87216 31.1975 4.87216L27.8795 4.97716C27.6695 4.97716 27.5645 4.87916 27.5645 4.68316V4.15816C27.5645 3.92016 27.5015 3.73116 27.3755 3.59116C27.2635 3.45116 27.1095 3.38116 26.9135 3.38116C26.7175 3.38116 26.5565 3.45116 26.4305 3.59116C26.3185 3.73116 26.2625 3.92016 26.2625 4.15816V10.8992C26.2625 11.1372 26.3185 11.3262 26.4305 11.4662C26.5565 11.5922 26.7175 11.6552 26.9135 11.6552C27.1095 11.6552 27.2635 11.5922 27.3755 11.4662C27.5015 11.3262 27.5645 11.1372 27.5645 10.8992V10.3322C27.5645 10.1362 27.6695 10.0382 27.8795 10.0382L31.1975 10.1432C31.2955 10.1432 31.3725 10.1782 31.4285 10.2482C31.4845 10.3042 31.5125 10.3812 31.5125 10.4792V10.5632C31.5125 11.4592 31.3165 12.2502 30.9245 12.9362C30.5465 13.6082 30.0075 14.1262 29.3075 14.4902C28.6215 14.8542 27.8235 15.0362 26.9135 15.0362ZM34.2428 14.8682C34.1448 14.8682 34.0678 14.8402 34.0118 14.7842C33.9558 14.7282 33.9278 14.6512 33.9278 14.5532V0.483163C33.9278 0.385163 33.9558 0.308163 34.0118 0.252163C34.0678 0.196163 34.1448 0.168163 34.2428 0.168163H37.5608C37.6588 0.168163 37.7358 0.196163 37.7918 0.252163C37.8478 0.308163 37.8758 0.385163 37.8758 0.483163V4.64116C37.8758 4.69716 37.8898 4.73216 37.9178 4.74616C37.9598 4.74616 37.9948 4.71816 38.0228 4.66216L39.7868 0.420164C39.8568 0.252163 39.9828 0.168163 40.1648 0.168163H43.6298C43.7418 0.168163 43.8258 0.203163 43.8818 0.273163C43.9378 0.343163 43.9378 0.434163 43.8818 0.546163L40.9208 6.74116C40.9068 6.79716 40.9068 6.85316 40.9208 6.90916L43.9658 14.5112C43.9798 14.5532 43.9868 14.6022 43.9868 14.6582C43.9868 14.7982 43.8958 14.8682 43.7138 14.8682H40.2278C40.0458 14.8682 39.9198 14.7842 39.8498 14.6162L38.2328 10.3112C38.2188 10.2412 38.1908 10.2062 38.1488 10.2062C38.1208 10.2062 38.0928 10.2412 38.0648 10.3112L37.8968 10.7312C37.8828 10.7592 37.8758 10.8152 37.8758 10.8992V14.5532C37.8758 14.6512 37.8478 14.7282 37.7918 14.7842C37.7358 14.8402 37.6588 14.8682 37.5608 14.8682H34.2428ZM54.6765 3.23416C54.6765 3.33216 54.6485 3.40916 54.5925 3.46516C54.5365 3.52116 54.4595 3.54916 54.3615 3.54916H50.3505C50.2665 3.54916 50.2245 3.59116 50.2245 3.67516V5.69116C50.2245 5.77516 50.2665 5.81716 50.3505 5.81716H52.4295C52.5275 5.81716 52.6045 5.84516 52.6605 5.90116C52.7165 5.95716 52.7445 6.03416 52.7445 6.13216V8.88316C52.7445 8.98116 52.7165 9.05816 52.6605 9.11416C52.6045 9.17016 52.5275 9.19816 52.4295 9.19816H50.3505C50.2665 9.19816 50.2245 9.24016 50.2245 9.32416V11.3612C50.2245 11.4452 50.2665 11.4872 50.3505 11.4872H54.3615C54.4595 11.4872 54.5365 11.5152 54.5925 11.5712C54.6485 11.6272 54.6765 11.7042 54.6765 11.8022V14.5532C54.6765 14.6512 54.6485 14.7282 54.5925 14.7842C54.5365 14.8402 54.4595 14.8682 54.3615 14.8682H46.5915C46.4935 14.8682 46.4165 14.8402 46.3605 14.7842C46.3045 14.7282 46.2765 14.6512 46.2765 14.5532V0.483163C46.2765 0.385163 46.3045 0.308163 46.3605 0.252163C46.4165 0.196163 46.4935 0.168163 46.5915 0.168163H54.3615C54.4595 0.168163 54.5365 0.196163 54.5925 0.252163C54.6485 0.308163 54.6765 0.385163 54.6765 0.483163V3.23416ZM57.4225 14.8682C57.3245 14.8682 57.2475 14.8402 57.1915 14.7842C57.1355 14.7282 57.1075 14.6512 57.1075 14.5532V0.483163C57.1075 0.385163 57.1355 0.308163 57.1915 0.252163C57.2475 0.196163 57.3245 0.168163 57.4225 0.168163H61.5595C62.4835 0.168163 63.2955 0.343163 63.9955 0.693164C64.7095 1.04316 65.2625 1.54016 65.6545 2.18416C66.0465 2.81416 66.2425 3.54216 66.2425 4.36816V10.6682C66.2425 11.4942 66.0465 12.2292 65.6545 12.8732C65.2625 13.5032 64.7095 13.9932 63.9955 14.3432C63.2955 14.6932 62.4835 14.8682 61.5595 14.8682H57.4225ZM61.0555 11.3612C61.0555 11.4452 61.0975 11.4872 61.1815 11.4872L61.4755 11.4662C61.6995 11.4522 61.8885 11.3472 62.0425 11.1512C62.1965 10.9552 62.2805 10.7032 62.2945 10.3952V4.62016C62.2945 4.29816 62.2175 4.03916 62.0635 3.84316C61.9095 3.64716 61.7065 3.54916 61.4545 3.54916H61.1815C61.0975 3.54916 61.0555 3.59116 61.0555 3.67516V11.3612ZM74.778 14.8682C74.68 14.8682 74.603 14.8402 74.547 14.7842C74.491 14.7282 74.463 14.6512 74.463 14.5532V0.483163C74.463 0.385163 74.491 0.308163 74.547 0.252163C74.603 0.196163 74.68 0.168163 74.778 0.168163H78.096C78.194 0.168163 78.271 0.196163 78.327 0.252163C78.383 0.308163 78.411 0.385163 78.411 0.483163V14.5532C78.411 14.6512 78.383 14.7282 78.327 14.7842C78.271 14.8402 78.194 14.8682 78.096 14.8682H74.778ZM87.0979 0.483163C87.0979 0.385163 87.1259 0.308163 87.1819 0.252163C87.2379 0.196163 87.3149 0.168163 87.4129 0.168163H90.6889C90.7869 0.168163 90.8639 0.196163 90.9199 0.252163C90.9759 0.308163 91.0039 0.385163 91.0039 0.483163V14.5532C91.0039 14.6512 90.9759 14.7282 90.9199 14.7842C90.8639 14.8402 90.7869 14.8682 90.6889 14.8682H86.9509C86.7689 14.8682 86.6569 14.7772 86.6149 14.5952L85.0189 8.23216C85.0049 8.19016 84.9769 8.16916 84.9349 8.16916C84.8929 8.16916 84.8719 8.19716 84.8719 8.25316L84.9139 14.5532C84.9139 14.6512 84.8859 14.7282 84.8299 14.7842C84.7739 14.8402 84.6969 14.8682 84.5989 14.8682H81.3229C81.2249 14.8682 81.1479 14.8402 81.0919 14.7842C81.0359 14.7282 81.0079 14.6512 81.0079 14.5532V0.483163C81.0079 0.385163 81.0359 0.308163 81.0919 0.252163C81.1479 0.196163 81.2249 0.168163 81.3229 0.168163H85.0189C85.2009 0.168163 85.3129 0.259163 85.3549 0.441163L86.9719 6.82516C86.9859 6.88116 87.0139 6.90916 87.0559 6.90916C87.0979 6.90916 87.1189 6.88116 87.1189 6.82516L87.0979 0.483163Z" fill="white"/>
<path d="M99.6217 14.8682C99.5237 14.8682 99.4467 14.8402 99.3907 14.7842C99.3347 14.7282 99.3067 14.6512 99.3067 14.5532V0.483163C99.3067 0.385163 99.3347 0.308163 99.3907 0.252163C99.4467 0.196163 99.5237 0.168163 99.6217 0.168163H102.94C103.038 0.168163 103.115 0.196163 103.171 0.252163C103.227 0.308163 103.255 0.385163 103.255 0.483163V11.3612C103.255 11.4452 103.297 11.4872 103.381 11.4872H107.476C107.574 11.4872 107.651 11.5152 107.707 11.5712C107.763 11.6272 107.791 11.7042 107.791 11.8022V14.5532C107.791 14.6512 107.763 14.7282 107.707 14.7842C107.651 14.8402 107.574 14.8682 107.476 14.8682H99.6217ZM110.284 14.8682C110.172 14.8682 110.088 14.8402 110.032 14.7842C109.99 14.7142 109.99 14.6232 110.032 14.5112L112.783 7.60216C112.811 7.54616 112.811 7.49016 112.783 7.43416L110.032 0.525163C110.018 0.483163 110.011 0.434163 110.011 0.378163C110.011 0.238163 110.102 0.168163 110.284 0.168163H113.644C113.728 0.168163 113.805 0.196163 113.875 0.252163C113.945 0.294164 113.987 0.357164 114.001 0.441163L114.841 3.31816C114.869 3.37416 114.897 3.40216 114.925 3.40216C114.967 3.40216 114.995 3.37416 115.009 3.31816L115.849 0.441163C115.863 0.357164 115.905 0.294164 115.975 0.252163C116.045 0.196163 116.122 0.168163 116.206 0.168163H119.545C119.657 0.168163 119.734 0.203163 119.776 0.273163C119.832 0.329163 119.839 0.413163 119.797 0.525163L117.046 7.43416C117.018 7.49016 117.018 7.54616 117.046 7.60216L119.797 14.5112C119.811 14.5532 119.818 14.6022 119.818 14.6582C119.818 14.7982 119.727 14.8682 119.545 14.8682H116.227C116.143 14.8682 116.066 14.8472 115.996 14.8052C115.926 14.7492 115.884 14.6792 115.87 14.5952L115.009 11.7392C114.995 11.6832 114.967 11.6552 114.925 11.6552C114.897 11.6552 114.869 11.6832 114.841 11.7392L113.98 14.5952C113.966 14.6792 113.924 14.7492 113.854 14.8052C113.784 14.8472 113.707 14.8682 113.623 14.8682H110.284Z" fill="#85144B"/>
</svg>
